  0
SECTION
  2
HEADER
  9
$ACADVER
  1
AC1014
  9
$HANDSEED
  5
FFFF
  9
$MEASUREMENT
 70
     1
  0
ENDSEC
  0
SECTION
  2
TABLES
  0
TABLE
  2
VPORT
  5
8
330
0
100
AcDbSymbolTable
 70
     4
  0
VPORT
  5
2E
330
8
100
AcDbSymbolTableRecord
100
AcDbViewportTableRecord
  2
*ACTIVE
 70
     0
 10
0.0
 20
0.0
 11
1.0
 21
1.0
 12
210.0
 22
148.5
 13
0.0
 23
0.0
 14
10.0
 24
10.0
 15
10.0
 25
10.0
 16
0.0
 26
0.0
 36
1.0
 17
0.0
 27
0.0
 37
0.0
 40
341.0
 41
1.24
 42
50.0
 43
0.0
 44
0.0
 50
0.0
 51
0.0
 71
     0
 72
   100
 73
     1
 74
     3
 75
     0
 76
     0
 77
     0
 78
     0
  0
ENDTAB
  0
TABLE
  2
LTYPE
  5
5
330
0
100
AcDbSymbolTable
 70
     1
  0
LTYPE
  5
14
330
5
100
AcDbSymbolTableRecord
100
AcDbLinetypeTableRecord
  2
BYBLOCK
 70
     0
  3

 72
    65
 73
     0
 40
0.0
  0
LTYPE
  5
15
330
5
100
AcDbSymbolTableRecord
100
AcDbLinetypeTableRecord
  2
BYLAYER
 70
     0
  3

 72
    65
 73
     0
 40
0.0
  0
LTYPE
  5
16
330
5
100
AcDbSymbolTableRecord
100
AcDbLinetypeTableRecord
  2
CONTINUOUS
 70
     0
  3
Solid line
 72
    65
 73
     0
 40
0.0
  0
ENDTAB
  0
TABLE
  2
LAYER
  5
2
100
AcDbSymbolTable
 70
4
  0
LAYER
  5
50
100
AcDbSymbolTableRecord
100
AcDbLayerTableRecord
  2
0
 70
0
  6
CONTINUOUS
  0
LAYER
  5
51
100
AcDbSymbolTableRecord
100
AcDbLayerTableRecord
  2
decoupe2
 70
0
  6
CONTINUOUS
  0
LAYER
  5
52
100
AcDbSymbolTableRecord
100
AcDbLayerTableRecord
  2
decoupe1
 70
0
  6
CONTINUOUS
  0
LAYER
  5
53
100
AcDbSymbolTableRecord
100
AcDbLayerTableRecord
  2
gravure
 70
0
  6
CONTINUOUS
  0
ENDTAB
  0
TABLE
  2
STYLE
  5
3
330
0
100
AcDbSymbolTable
 70
     1
  0
STYLE
  5
11
330
3
100
AcDbSymbolTableRecord
100
AcDbTextStyleTableRecord
  2
STANDARD
 70
     0
 40
0.0
 41
1.0
 50
0.0
 71
     0
 42
2.5
  3
txt
  4

  0
ENDTAB
  0
TABLE
  2
VIEW
  5
6
330
0
100
AcDbSymbolTable
 70
     0
  0
ENDTAB
  0
TABLE
  2
UCS
  5
7
330
0
100
AcDbSymbolTable
 70
     0
  0
ENDTAB
  0
TABLE
  2
APPID
  5
9
330
0
100
AcDbSymbolTable
 70
     2
  0
APPID
  5
12
330
9
100
AcDbSymbolTableRecord
100
AcDbRegAppTableRecord
  2
ACAD
 70
     0
  0
ENDTAB
  0
TABLE
  2
DIMSTYLE
  5
A
330
0
100
AcDbSymbolTable
 70
     1
  0
DIMSTYLE
105
27
330
A
100
AcDbSymbolTableRecord
100
AcDbDimStyleTableRecord
  2
ISO-25
 70
     0
  3

  4

  5

  6

  7

 40
1.0
 41
2.5
 42
0.625
 43
3.75
 44
1.25
 45
0.0
 46
0.0
 47
0.0
 48
0.0
140
2.5
141
2.5
142
0.0
143
0.03937007874016
144
1.0
145
0.0
146
1.0
147
0.625
 71
     0
 72
     0
 73
     0
 74
     0
 75
     0
 76
     0
 77
     1
 78
     8
170
     0
171
     3
172
     1
173
     0
174
     0
175
     0
176
     0
177
     0
178
     0
270
     2
271
     2
272
     2
273
     2
274
     3
340
11
275
     0
280
     0
281
     0
282
     0
283
     0
284
     8
285
     0
286
     0
287
     3
288
     0
  0
ENDTAB
  0
TABLE
  2
BLOCK_RECORD
  5
1
330
0
100
AcDbSymbolTable
 70
     1
  0
BLOCK_RECORD
  5
1F
330
1
100
AcDbSymbolTableRecord
100
AcDbBlockTableRecord
  2
*MODEL_SPACE
  0
BLOCK_RECORD
  5
1B
330
1
100
AcDbSymbolTableRecord
100
AcDbBlockTableRecord
  2
*PAPER_SPACE
  0
ENDTAB
  0
ENDSEC
  0
SECTION
  2
BLOCKS
  0
BLOCK
  5
20
330
1F
100
AcDbEntity
  8
0
100
AcDbBlockBegin
  2
*MODEL_SPACE
 70
     0
 10
0.0
 20
0.0
 30
0.0
  3
*MODEL_SPACE
  1

  0
ENDBLK
  5
21
330
1F
100
AcDbEntity
  8
0
100
AcDbBlockEnd
  0
BLOCK
  5
1C
330
1B
100
AcDbEntity
 67
     1
  8
0
100
AcDbBlockBegin
  2
*PAPER_SPACE
  1

  0
ENDBLK
  5
1D
330
1B
100
AcDbEntity
 67
     1
  8
0
100
AcDbBlockEnd
  0
ENDSEC
  0
SECTION
  2
ENTITIES
  0
LWPOLYLINE
  5
100
100
AcDbEntity
  8
decoupe2
 62
7
100
AcDbPolyline
 90
29
 70
1
 10
131.002357
 20
76.749174
 30
0.0
 10
134.000968
 20
76.768534
 30
0.0
 10
134.000968
 20
84.753445
 30
0.0
 10
131.002357
 20
84.757226
 30
0.0
 10
131.002357
 20
87.755838
 30
0.0
 10
134.000968
 20
87.765405
 30
0.0
 10
134.000968
 20
95.821921
 30
0.0
 10
131.002357
 20
95.797678
 30
0.0
 10
131.002075
 20
101.126112
 30
0.0
 10
114.952439
 20
101.126112
 30
0.0
 10
114.945355
 20
97.915835
 30
0.0
 10
102.624836
 20
97.915835
 30
0.0
 10
102.633359
 20
101.126112
 30
0.0
 10
32.506910
 20
101.126112
 30
0.0
 10
32.506813
 20
97.915835
 30
0.0
 10
20.018479
 20
97.915835
 30
0.0
 10
20.018479
 20
101.126112
 30
0.0
 10
4.002368
 20
101.126112
 30
0.0
 10
4.002368
 20
95.745120
 30
0.0
 10
1.003757
 20
95.745120
 30
0.0
 10
1.003757
 20
87.763861
 30
0.0
 10
4.002368
 20
87.755846
 30
0.0
 10
4.002368
 20
84.757235
 30
0.0
 10
1.003757
 20
84.753453
 30
0.0
 10
1.003757
 20
76.768543
 30
0.0
 10
4.002368
 20
76.749182
 30
0.0
 10
4.002368
 20
73.891682
 30
0.0
 10
131.002368
 20
73.891682
 30
0.0
 10
131.002357
 20
76.749174
 30
0.0
  0
LWPOLYLINE
  5
101
100
AcDbEntity
  8
decoupe2
 62
7
100
AcDbPolyline
 90
29
 70
0
 10
131.002357
 20
38.331674
 30
0.0
 10
4.002357
 20
38.331674
 30
0.0
 10
4.002357
 20
41.189174
 30
0.0
 10
1.003746
 20
41.200096
 30
0.0
 10
1.003746
 20
49.193309
 30
0.0
 10
4.002357
 20
49.197232
 30
0.0
 10
4.002357
 20
52.195843
 30
0.0
 10
1.003746
 20
52.205411
 30
0.0
 10
1.003746
 20
60.261929
 30
0.0
 10
4.002357
 20
60.237686
 30
0.0
 10
4.002357
 20
65.566121
 30
0.0
 10
25.027913
 20
65.566121
 30
0.0
 10
25.027066
 20
62.355843
 30
0.0
 10
37.386046
 20
62.355843
 30
0.0
 10
37.396331
 20
65.566121
 30
0.0
 10
98.017415
 20
65.566121
 30
0.0
 10
98.017550
 20
62.355843
 30
0.0
 10
102.533106
 20
62.355843
 30
0.0
 10
102.533106
 20
65.566121
 30
0.0
 10
131.002272
 20
65.566121
 30
0.0
 10
131.002272
 20
60.212859
 30
0.0
 10
134.000883
 20
60.186246
 30
0.0
 10
134.000883
 20
52.204490
 30
0.0
 10
131.002272
 20
52.195854
 30
0.0
 10
131.002272
 20
49.197243
 30
0.0
 10
134.000883
 20
49.193462
 30
0.0
 10
134.000883
 20
41.208551
 30
0.0
 10
131.002272
 20
41.189191
 30
0.0
 10
131.002272
 20
38.331691
 30
0.0
  0
SPLINE
  5
102
100
AcDbEntity
  8
decoupe2
 62
7
100
AcDbSpline
 70
8
 71
3
 72
8
 73
4
 74
0
 40
0
 40
0
 40
0
 40
0
 40
1
 40
1
 40
1
 40
1
 10
194.682494
 20
5.135282
 30
0.0
 10
194.806293
 20
1.820605
 30
0.0
 10
191.165768
 20
-0.741256
 30
0.0
 10
188.078045
 20
0.406462
 30
0.0
  0
SPLINE
  5
103
100
AcDbEntity
  8
decoupe2
 62
7
100
AcDbSpline
 70
8
 71
3
 72
8
 73
4
 74
0
 40
0
 40
0
 40
0
 40
0
 40
1
 40
1
 40
1
 40
1
 10
188.078045
 20
0.406462
 30
0.0
 10
186.096758
 20
1.031782
 30
0.0
 10
184.660091
 20
3.064877
 30
0.0
 10
184.698883
 20
5.135282
 30
0.0
  0
LWPOLYLINE
  5
104
100
AcDbEntity
  8
decoupe2
 62
7
100
AcDbPolyline
 90
59
 70
1
 10
0.162120
 20
4.570838
 30
0.0
 10
0.267953
 20
3.971115
 30
0.0
 10
0.409064
 20
3.441949
 30
0.0
 10
0.656009
 20
2.912782
 30
0.0
 10
0.938231
 20
2.383615
 30
0.0
 10
1.291009
 20
1.925004
 30
0.0
 10
1.679064
 20
1.501671
 30
0.0
 10
2.137675
 20
1.113615
 30
0.0
 10
2.631564
 20
0.796115
 30
0.0
 10
3.160731
 20
0.549171
 30
0.0
 10
3.689898
 20
0.337504
 30
0.0
 10
4.254342
 20
0.231671
 30
0.0
 10
4.818786
 20
0.161115
 30
0.0
 10
5.418509
 20
0.161115
 30
0.0
 10
5.982953
 20
0.231671
 30
0.0
 10
6.547398
 20
0.337504
 30
0.0
 10
7.111842
 20
0.549171
 30
0.0
 10
7.641009
 20
0.796115
 30
0.0
 10
8.099620
 20
1.113615
 30
0.0
 10
8.558231
 20
1.501671
 30
0.0
 10
8.946286
 20
1.925004
 30
0.0
 10
9.299064
 20
2.383615
 30
0.0
 10
9.581286
 20
2.912782
 30
0.0
 10
9.828231
 20
3.441949
 30
0.0
 10
10.004620
 20
3.971115
 30
0.0
 10
10.075175
 20
4.570838
 30
0.0
 10
10.110453
 20
5.135282
 30
0.0
 10
82.641564
 20
5.135282
 30
0.0
 10
82.641564
 20
4.570838
 30
0.0
 10
82.747398
 20
3.971115
 30
0.0
 10
82.923786
 20
3.441949
 30
0.0
 10
83.170731
 20
2.912782
 30
0.0
 10
83.452953
 20
2.383615
 30
0.0
 10
83.805731
 20
1.925004
 30
0.0
 10
84.193786
 20
1.501671
 30
0.0
 10
84.652398
 20
1.113615
 30
0.0
 10
85.111009
 20
0.796115
 30
0.0
 10
85.640175
 20
0.549171
 30
0.0
 10
86.204620
 20
0.337504
 30
0.0
 10
86.769064
 20
0.231671
 30
0.0
 10
87.333509
 20
0.161115
 30
0.0
 10
87.897953
 20
0.161115
 30
0.0
 10
88.497675
 20
0.231671
 30
0.0
 10
89.062120
 20
0.337504
 30
0.0
 10
89.591286
 20
0.549171
 30
0.0
 10
90.120453
 20
0.796115
 30
0.0
 10
90.614342
 20
1.113615
 30
0.0
 10
91.072953
 20
1.501671
 30
0.0
 10
91.461009
 20
1.925004
 30
0.0
 10
91.813786
 20
2.383615
 30
0.0
 10
92.096009
 20
2.912782
 30
0.0
 10
92.307675
 20
3.441949
 30
0.0
 10
92.484064
 20
3.971115
 30
0.0
 10
92.589898
 20
4.570838
 30
0.0
 10
92.625175
 20
5.135282
 30
0.0
 10
92.625175
 20
32.158060
 30
0.0
 10
0.126842
 20
32.158060
 30
0.0
 10
0.126842
 20
5.135282
 30
0.0
 10
0.162120
 20
4.570838
 30
0.0
  0
SPLINE
  5
105
100
AcDbEntity
  8
decoupe2
 62
7
100
AcDbSpline
 70
8
 71
3
 72
8
 73
4
 74
0
 40
0
 40
0
 40
0
 40
0
 40
1
 40
1
 40
1
 40
1
 10
112.167772
 20
5.135282
 30
0.0
 10
112.329234
 20
1.757161
 30
0.0
 10
108.477169
 20
-0.854253
 30
0.0
 10
105.382517
 20
0.483385
 30
0.0
  0
SPLINE
  5
106
100
AcDbEntity
  8
decoupe2
 62
7
100
AcDbSpline
 70
8
 71
3
 72
8
 73
4
 74
0
 40
0
 40
0
 40
0
 40
0
 40
1
 40
1
 40
1
 40
1
 10
105.382517
 20
0.483385
 30
0.0
 10
103.455563
 20
1.157746
 30
0.0
 10
102.202883
 20
3.127418
 30
0.0
 10
102.184160
 20
5.135282
 30
0.0
  0
LWPOLYLINE
  5
107
100
AcDbEntity
  8
decoupe2
 62
7
100
AcDbPolyline
 90
2
 70
1
 10
184.698883
 20
5.135282
 30
0.0
 10
112.167772
 20
5.135282
 30
0.0
  0
LWPOLYLINE
  5
108
100
AcDbEntity
  8
decoupe2
 62
7
100
AcDbPolyline
 90
4
 70
1
 10
102.184160
 20
5.135282
 30
0.0
 10
102.184160
 20
32.158060
 30
0.0
 10
194.682494
 20
32.158060
 30
0.0
 10
194.682494
 20
5.135282
 30
0.0
  0
LWPOLYLINE
  5
109
100
AcDbEntity
  8
decoupe2
 62
7
100
AcDbPolyline
 90
117
 70
1
 10
3.563267
 20
202.829682
 30
0.0
 10
3.386878
 20
202.829682
 30
0.0
 10
3.175212
 20
202.759127
 30
0.0
 10
2.998823
 20
202.653294
 30
0.0
 10
2.857712
 20
202.547460
 30
0.0
 10
2.751878
 20
202.406349
 30
0.0
 10
2.646045
 20
202.229960
 30
0.0
 10
2.575489
 20
202.018294
 30
0.0
 10
2.575489
 20
201.841905
 30
0.0
 10
2.575489
 20
191.329127
 30
0.0
 10
2.575489
 20
191.152738
 30
0.0
 10
2.646045
 20
190.941071
 30
0.0
 10
2.751878
 20
190.799960
 30
0.0
 10
2.857712
 20
190.623571
 30
0.0
 10
2.998823
 20
190.517738
 30
0.0
 10
3.175212
 20
190.411905
 30
0.0
 10
3.386878
 20
190.341349
 30
0.0
 10
3.563267
 20
190.341349
 30
0.0
 10
6.067989
 20
190.341349
 30
0.0
 10
6.067989
 20
150.336349
 30
0.0
 10
3.563267
 20
150.336349
 30
0.0
 10
3.386878
 20
150.336349
 30
0.0
 10
3.175212
 20
150.265794
 30
0.0
 10
2.998823
 20
150.159960
 30
0.0
 10
2.857712
 20
150.054127
 30
0.0
 10
2.751878
 20
149.877738
 30
0.0
 10
2.646045
 20
149.736627
 30
0.0
 10
2.575489
 20
149.524960
 30
0.0
 10
2.575489
 20
149.348571
 30
0.0
 10
2.575489
 20
138.835794
 30
0.0
 10
2.575489
 20
138.659405
 30
0.0
 10
2.646045
 20
138.447738
 30
0.0
 10
2.751878
 20
138.271349
 30
0.0
 10
2.857712
 20
138.130238
 30
0.0
 10
2.998823
 20
138.024405
 30
0.0
 10
3.175212
 20
137.918571
 30
0.0
 10
3.386878
 20
137.848016
 30
0.0
 10
3.563267
 20
137.848016
 30
0.0
 10
6.067989
 20
137.848016
 30
0.0
 10
6.067989
 20
107.826624
 30
0.0
 10
6.067989
 20
107.650235
 30
0.0
 10
6.138545
 20
107.473847
 30
0.0
 10
6.244378
 20
107.297458
 30
0.0
 10
6.350212
 20
107.121069
 30
0.0
 10
6.526601
 20
107.015235
 30
0.0
 10
6.667712
 20
106.909402
 30
0.0
 10
6.879378
 20
106.874124
 30
0.0
 10
7.055767
 20
106.838847
 30
0.0
 10
84.067156
 20
106.838847
 30
0.0
 10
84.278823
 20
106.874124
 30
0.0
 10
84.455212
 20
106.909402
 30
0.0
 10
84.631601
 20
107.015235
 30
0.0
 10
84.772712
 20
107.121069
 30
0.0
 10
84.913823
 20
107.297458
 30
0.0
 10
84.984378
 20
107.473847
 30
0.0
 10
85.054934
 20
107.650235
 30
0.0
 10
85.054934
 20
107.826624
 30
0.0
 10
85.054934
 20
137.848016
 30
0.0
 10
87.559656
 20
137.848016
 30
0.0
 10
87.771323
 20
137.848016
 30
0.0
 10
87.947712
 20
137.918571
 30
0.0
 10
88.124101
 20
138.024405
 30
0.0
 10
88.265212
 20
138.130238
 30
0.0
 10
88.406323
 20
138.271349
 30
0.0
 10
88.476878
 20
138.447738
 30
0.0
 10
88.547434
 20
138.659405
 30
0.0
 10
88.582712
 20
138.835794
 30
0.0
 10
88.582712
 20
149.348571
 30
0.0
 10
88.547434
 20
149.524960
 30
0.0
 10
88.476878
 20
149.736627
 30
0.0
 10
88.406323
 20
149.877738
 30
0.0
 10
88.265212
 20
150.054127
 30
0.0
 10
88.124101
 20
150.159960
 30
0.0
 10
87.947712
 20
150.265794
 30
0.0
 10
87.771323
 20
150.336349
 30
0.0
 10
87.559656
 20
150.336349
 30
0.0
 10
85.054934
 20
150.336349
 30
0.0
 10
85.054934
 20
190.341349
 30
0.0
 10
87.559656
 20
190.341349
 30
0.0
 10
87.771323
 20
190.341349
 30
0.0
 10
87.947712
 20
190.411905
 30
0.0
 10
88.124101
 20
190.517738
 30
0.0
 10
88.265212
 20
190.623571
 30
0.0
 10
88.406323
 20
190.799960
 30
0.0
 10
88.476878
 20
190.941071
 30
0.0
 10
88.547434
 20
191.152738
 30
0.0
 10
88.582712
 20
191.329127
 30
0.0
 10
88.582712
 20
201.841905
 30
0.0
 10
88.547434
 20
202.018294
 30
0.0
 10
88.476878
 20
202.229960
 30
0.0
 10
88.406323
 20
202.406349
 30
0.0
 10
88.265212
 20
202.547460
 30
0.0
 10
88.124101
 20
202.653294
 30
0.0
 10
87.947712
 20
202.759127
 30
0.0
 10
87.771323
 20
202.829682
 30
0.0
 10
87.559656
 20
202.829682
 30
0.0
 10
85.054934
 20
202.829682
 30
0.0
 10
85.054934
 20
232.851063
 30
0.0
 10
85.054934
 20
233.027452
 30
0.0
 10
84.984378
 20
233.239118
 30
0.0
 10
84.913823
 20
233.380229
 30
0.0
 10
84.772712
 20
233.556618
 30
0.0
 10
84.631601
 20
233.662452
 30
0.0
 10
84.455212
 20
233.768285
 30
0.0
 10
84.278823
 20
233.803563
 30
0.0
 10
84.067156
 20
233.838841
 30
0.0
 10
7.055767
 20
233.838841
 30
0.0
 10
6.879378
 20
233.803563
 30
0.0
 10
6.667712
 20
233.768285
 30
0.0
 10
6.526601
 20
233.662452
 30
0.0
 10
6.350212
 20
233.556618
 30
0.0
 10
6.244378
 20
233.380229
 30
0.0
 10
6.138545
 20
233.239118
 30
0.0
 10
6.067989
 20
233.027452
 30
0.0
 10
6.067989
 20
232.851063
 30
0.0
 10
6.067989
 20
202.829682
 30
0.0
 10
3.563267
 20
202.829682
 30
0.0
  0
LWPOLYLINE
  5
10a
100
AcDbEntity
  8
decoupe2
 62
7
100
AcDbPolyline
 90
129
 70
1
 10
154.375017
 20
229.851741
 30
0.0
 10
163.864739
 20
229.851741
 30
0.0
 10
163.864739
 20
233.838129
 30
0.0
 10
180.233633
 20
233.838129
 30
0.0
 10
180.410022
 20
233.802852
 30
0.0
 10
180.586411
 20
233.767574
 30
0.0
 10
180.762800
 20
233.661741
 30
0.0
 10
180.939189
 20
233.555907
 30
0.0
 10
181.045022
 20
233.379518
 30
0.0
 10
181.150855
 20
233.203129
 30
0.0
 10
181.186133
 20
233.026741
 30
0.0
 10
181.221411
 20
232.850352
 30
0.0
 10
181.221411
 20
217.822018
 30
0.0
 10
183.726133
 20
217.822018
 30
0.0
 10
183.902522
 20
217.822018
 30
0.0
 10
184.114189
 20
217.751463
 30
0.0
 10
184.255300
 20
217.680907
 30
0.0
 10
184.431689
 20
217.539796
 30
0.0
 10
184.537522
 20
217.398685
 30
0.0
 10
184.643355
 20
217.222296
 30
0.0
 10
184.713911
 20
217.045907
 30
0.0
 10
184.713911
 20
216.834241
 30
0.0
 10
184.713911
 20
206.321463
 30
0.0
 10
184.713911
 20
206.145074
 30
0.0
 10
184.643355
 20
205.968685
 30
0.0
 10
184.537522
 20
205.792296
 30
0.0
 10
184.431689
 20
205.615904
 30
0.0
 10
184.255300
 20
205.510071
 30
0.0
 10
184.114189
 20
205.404238
 30
0.0
 10
183.902522
 20
205.368960
 30
0.0
 10
183.726133
 20
205.333682
 30
0.0
 10
181.221411
 20
205.333682
 30
0.0
 10
181.221411
 20
200.853404
 30
0.0
 10
172.719467
 20
200.853404
 30
0.0
 10
172.719467
 20
140.598960
 30
0.0
 10
181.221411
 20
140.598960
 30
0.0
 10
181.221411
 20
135.342571
 30
0.0
 10
183.726133
 20
135.342571
 30
0.0
 10
183.902522
 20
135.307293
 30
0.0
 10
184.114189
 20
135.272015
 30
0.0
 10
184.255300
 20
135.166182
 30
0.0
 10
184.431689
 20
135.060349
 30
0.0
 10
184.537522
 20
134.883960
 30
0.0
 10
184.643355
 20
134.707571
 30
0.0
 10
184.713911
 20
134.531182
 30
0.0
 10
184.713911
 20
134.354793
 30
0.0
 10
184.713911
 20
123.842024
 30
0.0
 10
184.713911
 20
123.630357
 30
0.0
 10
184.643355
 20
123.453968
 30
0.0
 10
184.537522
 20
123.277579
 30
0.0
 10
184.431689
 20
123.136468
 30
0.0
 10
184.255300
 20
122.995357
 30
0.0
 10
184.114189
 20
122.924802
 30
0.0
 10
183.902522
 20
122.854246
 30
0.0
 10
183.726133
 20
122.854246
 30
0.0
 10
181.221411
 20
122.854246
 30
0.0
 10
181.221411
 20
107.825913
 30
0.0
 10
181.186133
 20
107.649524
 30
0.0
 10
181.150855
 20
107.437857
 30
0.0
 10
181.045022
 20
107.296746
 30
0.0
 10
180.939189
 20
107.120357
 30
0.0
 10
180.762800
 20
107.014524
 30
0.0
 10
180.586411
 20
106.908691
 30
0.0
 10
180.410022
 20
106.873413
 30
0.0
 10
180.233633
 20
106.838135
 30
0.0
 10
103.222239
 20
106.838135
 30
0.0
 10
103.010572
 20
106.873413
 30
0.0
 10
102.834183
 20
106.908691
 30
0.0
 10
102.657794
 20
107.014524
 30
0.0
 10
102.516683
 20
107.120357
 30
0.0
 10
102.375572
 20
107.296746
 30
0.0
 10
102.305017
 20
107.437857
 30
0.0
 10
102.234461
 20
107.649524
 30
0.0
 10
102.199183
 20
107.825913
 30
0.0
 10
102.199183
 20
127.828404
 30
0.0
 10
99.729739
 20
127.828404
 30
0.0
 10
99.518072
 20
127.863682
 30
0.0
 10
99.341683
 20
127.898960
 30
0.0
 10
99.165294
 20
128.004793
 30
0.0
 10
99.024183
 20
128.145904
 30
0.0
 10
98.883072
 20
128.287015
 30
0.0
 10
98.777239
 20
128.463404
 30
0.0
 10
98.741961
 20
128.639793
 30
0.0
 10
98.706683
 20
128.851460
 30
0.0
 10
98.706683
 20
139.328960
 30
0.0
 10
98.741961
 20
139.540627
 30
0.0
 10
98.777239
 20
139.717015
 30
0.0
 10
98.883072
 20
139.893404
 30
0.0
 10
99.024183
 20
140.034515
 30
0.0
 10
99.165294
 20
140.175627
 30
0.0
 10
99.341683
 20
140.246182
 30
0.0
 10
99.518072
 20
140.316738
 30
0.0
 10
99.729739
 20
140.352015
 30
0.0
 10
102.199183
 20
140.352015
 30
0.0
 10
102.199183
 20
148.324793
 30
0.0
 10
110.701128
 20
148.324793
 30
0.0
 10
110.701128
 20
200.853404
 30
0.0
 10
99.729739
 20
200.853404
 30
0.0
 10
99.518072
 20
200.853404
 30
0.0
 10
99.341683
 20
200.923960
 30
0.0
 10
99.165294
 20
200.994515
 30
0.0
 10
99.024183
 20
201.135627
 30
0.0
 10
98.883072
 20
201.276738
 30
0.0
 10
98.777239
 20
201.453127
 30
0.0
 10
98.741961
 20
201.629515
 30
0.0
 10
98.706683
 20
201.841182
 30
0.0
 10
98.706683
 20
204.345904
 30
0.0
 10
98.741961
 20
204.522293
 30
0.0
 10
98.777239
 20
204.733960
 30
0.0
 10
98.883072
 20
204.910349
 30
0.0
 10
99.024183
 20
205.051460
 30
0.0
 10
99.165294
 20
205.157293
 30
0.0
 10
99.341683
 20
205.263127
 30
0.0
 10
99.518072
 20
205.333682
 30
0.0
 10
99.729739
 20
205.333682
 30
0.0
 10
110.454183
 20
205.333682
 30
0.0
 10
110.454183
 20
225.336185
 30
0.0
 10
102.199183
 20
225.336185
 30
0.0
 10
102.199183
 20
232.850352
 30
0.0
 10
102.234461
 20
233.026741
 30
0.0
 10
102.305017
 20
233.203129
 30
0.0
 10
102.375572
 20
233.379518
 30
0.0
 10
102.516683
 20
233.555907
 30
0.0
 10
102.657794
 20
233.661741
 30
0.0
 10
102.834183
 20
233.767574
 30
0.0
 10
103.010572
 20
233.802852
 30
0.0
 10
103.222239
 20
233.838129
 30
0.0
 10
154.375017
 20
233.838129
 30
0.0
 10
154.375017
 20
229.851741
 30
0.0
  0
LWPOLYLINE
  5
10b
100
AcDbEntity
  8
decoupe1
 62
7
100
AcDbPolyline
 90
5
 70
1
 10
99.781523
 20
85.392220
 30
0.0
 10
116.785412
 20
85.392220
 30
0.0
 10
116.785412
 20
81.370554
 30
0.0
 10
99.781523
 20
81.370554
 30
0.0
 10
99.781523
 20
85.392220
 30
0.0
  0
LWPOLYLINE
  5
10c
100
AcDbEntity
  8
decoupe1
 62
7
100
AcDbPolyline
 90
5
 70
1
 10
100.028467
 20
75.373332
 30
0.0
 10
100.028467
 20
78.583609
 30
0.0
 10
87.504856
 20
78.583609
 30
0.0
 10
87.504856
 20
75.373332
 30
0.0
 10
100.028467
 20
75.373332
 30
0.0
  0
LWPOLYLINE
  5
10d
100
AcDbEntity
  8
decoupe1
 62
7
100
AcDbPolyline
 90
5
 70
1
 10
47.535134
 20
75.373332
 30
0.0
 10
47.535134
 20
78.583609
 30
0.0
 10
35.011523
 20
78.583609
 30
0.0
 10
35.011523
 20
75.373332
 30
0.0
 10
47.535134
 20
75.373332
 30
0.0
  0
LWPOLYLINE
  5
10e
100
AcDbEntity
  8
decoupe1
 62
7
100
AcDbPolyline
 90
5
 70
1
 10
87.504856
 20
43.023609
 30
0.0
 10
100.028467
 20
43.023609
 30
0.0
 10
100.028467
 20
39.813332
 30
0.0
 10
87.504856
 20
39.813332
 30
0.0
 10
87.504856
 20
43.023609
 30
0.0
  0
LWPOLYLINE
  5
10f
100
AcDbEntity
  8
decoupe1
 62
7
100
AcDbPolyline
 90
5
 70
1
 10
35.011523
 20
43.023609
 30
0.0
 10
47.535134
 20
43.023609
 30
0.0
 10
47.535134
 20
39.813332
 30
0.0
 10
35.011523
 20
39.813332
 30
0.0
 10
35.011523
 20
43.023609
 30
0.0
  0
LWPOLYLINE
  5
110
100
AcDbEntity
  8
decoupe1
 62
7
100
AcDbPolyline
 90
5
 70
1
 10
89.128461
 20
27.148228
 30
0.0
 10
85.885933
 20
27.148228
 30
0.0
 10
85.885942
 20
18.893547
 30
0.0
 10
89.128449
 20
18.893547
 30
0.0
 10
89.128461
 20
27.148228
 30
0.0
  0
LWPOLYLINE
  5
111
100
AcDbEntity
  8
decoupe1
 62
7
100
AcDbPolyline
 90
5
 70
1
 10
6.879179
 20
7.635756
 30
0.0
 10
6.879179
 20
15.894344
 30
0.0
 10
3.620821
 20
15.894344
 30
0.0
 10
3.620821
 20
7.635756
 30
0.0
 10
6.879179
 20
7.635756
 30
0.0
  0
LWPOLYLINE
  5
112
100
AcDbEntity
  8
decoupe1
 62
7
100
AcDbPolyline
 90
5
 70
1
 10
6.879179
 20
27.152846
 30
0.0
 10
3.620821
 20
27.152846
 30
0.0
 10
3.620821
 20
18.894258
 30
0.0
 10
6.879179
 20
18.894258
 30
0.0
 10
6.879179
 20
27.152846
 30
0.0
  0
LWPOLYLINE
  5
113
100
AcDbEntity
  8
decoupe1
 62
7
100
AcDbPolyline
 90
5
 70
1
 10
89.124764
 20
15.894592
 30
0.0
 10
85.885978
 20
15.894589
 30
0.0
 10
85.886097
 20
7.640836
 30
0.0
 10
89.127998
 20
7.640836
 30
0.0
 10
89.124764
 20
15.894592
 30
0.0
  0
LWPOLYLINE
  5
114
100
AcDbEntity
  8
decoupe1
 62
7
100
AcDbPolyline
 90
5
 70
1
 10
37.626839
 20
13.531384
 30
0.0
 10
37.626839
 20
27.501384
 30
0.0
 10
54.630728
 20
27.501384
 30
0.0
 10
54.630728
 20
13.531384
 30
0.0
 10
37.626839
 20
13.531384
 30
0.0
  0
LWPOLYLINE
  5
115
100
AcDbEntity
  8
decoupe1
 62
7
100
AcDbPolyline
 90
5
 70
1
 10
17.132709
 20
20.427755
 30
0.0
 10
33.613315
 20
20.427755
 30
0.0
 10
33.613315
 20
13.925211
 30
0.0
 10
17.132709
 20
13.925211
 30
0.0
 10
17.132709
 20
20.427755
 30
0.0
  0
LWPOLYLINE
  5
116
100
AcDbEntity
  8
decoupe1
 62
7
100
AcDbPolyline
 90
5
 70
1
 10
62.182992
 20
18.566994
 30
0.0
 10
74.817008
 20
18.566994
 30
0.0
 10
74.817008
 20
10.932978
 30
0.0
 10
62.182992
 20
10.932978
 30
0.0
 10
62.182992
 20
18.566994
 30
0.0
  0
LWPOLYLINE
  5
117
100
AcDbEntity
  8
decoupe1
 62
7
100
AcDbPolyline
 90
5
 70
1
 10
105.427119
 20
18.894002
 30
0.0
 10
105.427119
 20
27.151175
 30
0.0
 10
108.686353
 20
27.151175
 30
0.0
 10
108.686353
 20
18.894002
 30
0.0
 10
105.427119
 20
18.894002
 30
0.0
  0
LWPOLYLINE
  5
118
100
AcDbEntity
  8
decoupe1
 62
7
100
AcDbPolyline
 90
5
 70
1
 10
187.885501
 20
7.639953
 30
0.0
 10
187.885501
 20
15.894990
 30
0.0
 10
191.433370
 20
15.894990
 30
0.0
 10
191.433370
 20
7.639953
 30
0.0
 10
187.885501
 20
7.639953
 30
0.0
  0
LWPOLYLINE
  5
119
100
AcDbEntity
  8
decoupe1
 62
7
100
AcDbPolyline
 90
5
 70
1
 10
187.891583
 20
18.893612
 30
0.0
 10
187.891583
 20
27.148649
 30
0.0
 10
191.433582
 20
27.148649
 30
0.0
 10
191.433582
 20
18.893612
 30
0.0
 10
187.891583
 20
18.893612
 30
0.0
  0
SPLINE
  5
11a
100
AcDbEntity
  8
decoupe1
 62
7
100
AcDbSpline
 70
8
 71
3
 72
8
 73
4
 74
0
 40
0
 40
0
 40
0
 40
0
 40
1
 40
1
 40
1
 40
1
 10
126.115554
 20
14.980237
 30
0.0
 10
126.282201
 20
18.117970
 30
0.0
 10
122.316425
 20
20.273112
 30
0.0
 10
119.751127
 20
18.451195
 30
0.0
  0
SPLINE
  5
11b
100
AcDbEntity
  8
decoupe1
 62
7
100
AcDbSpline
 70
8
 71
3
 72
8
 73
4
 74
0
 40
0
 40
0
 40
0
 40
0
 40
1
 40
1
 40
1
 40
1
 10
119.751127
 20
18.451195
 30
0.0
 10
117.102847
 20
16.913287
 30
0.0
 10
117.309778
 20
12.604002
 30
0.0
 10
120.100284
 20
11.344794
 30
0.0
  0
SPLINE
  5
11c
100
AcDbEntity
  8
decoupe1
 62
7
100
AcDbSpline
 70
8
 71
3
 72
8
 73
4
 74
0
 40
0
 40
0
 40
0
 40
0
 40
1
 40
1
 40
1
 40
1
 10
120.100284
 20
11.344794
 30
0.0
 10
122.748366
 20
9.914800
 30
0.0
 10
126.187904
 20
11.961360
 30
0.0
 10
126.115554
 20
14.980237
 30
0.0
  0
LWPOLYLINE
  5
11d
100
AcDbEntity
  8
decoupe1
 62
7
100
AcDbPolyline
 90
5
 70
1
 10
105.429303
 20
7.639598
 30
0.0
 10
105.427045
 20
15.894600
 30
0.0
 10
108.686280
 20
15.894600
 30
0.0
 10
108.686280
 20
7.637424
 30
0.0
 10
105.429303
 20
7.639598
 30
0.0
  0
LWPOLYLINE
  5
11e
100
AcDbEntity
  8
decoupe1
 62
7
100
AcDbPolyline
 90
2
 70
1
 10
126.115554
 20
14.980237
 30
0.0
 10
126.115554
 20
14.980237
 30
0.0
  0
SPLINE
  5
11f
100
AcDbEntity
  8
decoupe1
 62
7
100
AcDbSpline
 70
8
 71
3
 72
8
 73
4
 74
0
 40
0
 40
0
 40
0
 40
0
 40
1
 40
1
 40
1
 40
1
 10
12.065211
 20
110.825227
 30
0.0
 10
12.028053
 20
111.035443
 30
0.0
 10
12.011281
 20
111.252096
 30
0.0
 10
11.916132
 20
111.446604
 30
0.0
  0
SPLINE
  5
120
100
AcDbEntity
  8
decoupe1
 62
7
100
AcDbSpline
 70
8
 71
3
 72
8
 73
4
 74
0
 40
0
 40
0
 40
0
 40
0
 40
1
 40
1
 40
1
 40
1
 10
11.916132
 20
111.446604
 30
0.0
 10
11.860295
 20
111.628242
 30
0.0
 10
11.723931
 20
111.765512
 30
0.0
 10
11.608437
 20
111.911068
 30
0.0
  0
SPLINE
  5
121
100
AcDbEntity
  8
decoupe1
 62
7
100
AcDbSpline
 70
8
 71
3
 72
8
 73
4
 74
0
 40
0
 40
0
 40
0
 40
0
 40
1
 40
1
 40
1
 40
1
 10
11.608437
 20
111.911068
 30
0.0
 10
11.473495
 20
112.008974
 30
0.0
 10
11.342242
 20
112.125100
 30
0.0
 10
11.186763
 20
112.189190
 30
0.0
  0
SPLINE
  5
122
100
AcDbEntity
  8
decoupe1
 62
7
100
AcDbSpline
 70
8
 71
3
 72
8
 73
4
 74
0
 40
0
 40
0
 40
0
 40
0
 40
1
 40
1
 40
1
 40
1
 10
11.186763
 20
112.189190
 30
0.0
 10
11.020500
 20
112.253342
 30
0.0
 10
10.853664
 20
112.323892
 30
0.0
 10
10.672506
 20
112.324891
 30
0.0
  0
SPLINE
  5
123
100
AcDbEntity
  8
decoupe1
 62
7
100
AcDbSpline
 70
8
 71
3
 72
8
 73
4
 74
0
 40
0
 40
0
 40
0
 40
0
 40
1
 40
1
 40
1
 40
1
 10
10.672506
 20
112.324891
 30
0.0
 10
10.507584
 20
112.361611
 30
0.0
 10
10.348142
 20
112.311570
 30
0.0
 10
10.189390
 20
112.271091
 30
0.0
  0
SPLINE
  5
124
100
AcDbEntity
  8
decoupe1
 62
7
100
AcDbSpline
 70
8
 71
3
 72
8
 73
4
 74
0
 40
0
 40
0
 40
0
 40
0
 40
1
 40
1
 40
1
 40
1
 10
10.189390
 20
112.271091
 30
0.0
 10
10.009687
 20
112.230301
 30
0.0
 10
9.848417
 20
112.135441
 30
0.0
 10
9.688603
 20
112.046955
 30
0.0
  0
SPLINE
  5
125
100
AcDbEntity
  8
decoupe1
 62
7
100
AcDbSpline
 70
8
 71
3
 72
8
 73
4
 74
0
 40
0
 40
0
 40
0
 40
0
 40
1
 40
1
 40
1
 40
1
 10
9.688603
 20
112.046955
 30
0.0
 10
9.555691
 20
111.910797
 30
0.0
 10
9.404544
 20
111.787895
 30
0.0
 10
9.320360
 20
111.612999
 30
0.0
  0
SPLINE
  5
126
100
AcDbEntity
  8
decoupe1
 62
7
100
AcDbSpline
 70
8
 71
3
 72
8
 73
4
 74
0
 40
0
 40
0
 40
0
 40
0
 40
1
 40
1
 40
1
 40
1
 10
9.320360
 20
111.612999
 30
0.0
 10
9.197522
 20
111.433616
 30
0.0
 10
9.129453
 20
111.224602
 30
0.0
 10
9.066599
 20
111.018515
 30
0.0
  0
SPLINE
  5
127
100
AcDbEntity
  8
decoupe1
 62
7
100
AcDbSpline
 70
8
 71
3
 72
8
 73
4
 74
0
 40
0
 40
0
 40
0
 40
0
 40
1
 40
1
 40
1
 40
1
 10
9.066599
 20
111.018515
 30
0.0
 10
9.073824
 20
110.844477
 30
0.0
 10
9.039337
 20
110.662542
 30
0.0
 10
9.116770
 20
110.499235
 30
0.0
  0
SPLINE
  5
128
100
AcDbEntity
  8
decoupe1
 62
7
100
AcDbSpline
 70
8
 71
3
 72
8
 73
4
 74
0
 40
0
 40
0
 40
0
 40
0
 40
1
 40
1
 40
1
 40
1
 10
9.116770
 20
110.499235
 30
0.0
 10
9.163009
 20
110.317498
 30
0.0
 10
9.242825
 20
110.150453
 30
0.0
 10
9.355934
 20
110.000988
 30
0.0
  0
SPLINE
  5
129
100
AcDbEntity
  8
decoupe1
 62
7
100
AcDbSpline
 70
8
 71
3
 72
8
 73
4
 74
0
 40
0
 40
0
 40
0
 40
0
 40
1
 40
1
 40
1
 40
1
 10
9.355934
 20
110.000988
 30
0.0
 10
9.457743
 20
109.851766
 30
0.0
 10
9.593895
 20
109.728875
 30
0.0
 10
9.728247
 20
109.609639
 30
0.0
  0
SPLINE
  5
12a
100
AcDbEntity
  8
decoupe1
 62
7
100
AcDbSpline
 70
8
 71
3
 72
8
 73
4
 74
0
 40
0
 40
0
 40
0
 40
0
 40
1
 40
1
 40
1
 40
1
 10
9.728247
 20
109.609639
 30
0.0
 10
9.843478
 20
109.544810
 30
0.0
 10
9.951801
 20
109.466061
 30
0.0
 10
10.072516
 20
109.411096
 30
0.0
  0
SPLINE
  5
12b
100
AcDbEntity
  8
decoupe1
 62
7
100
AcDbSpline
 70
8
 71
3
 72
8
 73
4
 74
0
 40
0
 40
0
 40
0
 40
0
 40
1
 40
1
 40
1
 40
1
 10
10.072516
 20
109.411096
 30
0.0
 10
10.262702
 20
109.385752
 30
0.0
 10
10.452085
 20
109.324084
 30
0.0
 10
10.644987
 20
109.358715
 30
0.0
  0
SPLINE
  5
12c
100
AcDbEntity
  8
decoupe1
 62
7
100
AcDbSpline
 70
8
 71
3
 72
8
 73
4
 74
0
 40
0
 40
0
 40
0
 40
0
 40
1
 40
1
 40
1
 40
1
 10
10.644987
 20
109.358715
 30
0.0
 10
10.850314
 20
109.357022
 30
0.0
 10
11.039350
 20
109.439682
 30
0.0
 10
11.227346
 20
109.512004
 30
0.0
  0
SPLINE
  5
12d
100
AcDbEntity
  8
decoupe1
 62
7
100
AcDbSpline
 70
8
 71
3
 72
8
 73
4
 74
0
 40
0
 40
0
 40
0
 40
0
 40
1
 40
1
 40
1
 40
1
 10
11.227346
 20
109.512004
 30
0.0
 10
11.361532
 20
109.582204
 30
0.0
 10
11.494789
 20
109.657388
 30
0.0
 10
11.617891
 20
109.746125
 30
0.0
  0
SPLINE
  5
12e
100
AcDbEntity
  8
decoupe1
 62
7
100
AcDbSpline
 70
8
 71
3
 72
8
 73
4
 74
0
 40
0
 40
0
 40
0
 40
0
 40
1
 40
1
 40
1
 40
1
 10
11.617891
 20
109.746125
 30
0.0
 10
11.721484
 20
109.892254
 30
0.0
 10
11.864491
 20
110.017620
 30
0.0
 10
11.907547
 20
110.197982
 30
0.0
  0
SPLINE
  5
12f
100
AcDbEntity
  8
decoupe1
 62
7
100
AcDbSpline
 70
8
 71
3
 72
8
 73
4
 74
0
 40
0
 40
0
 40
0
 40
0
 40
1
 40
1
 40
1
 40
1
 10
11.907547
 20
110.197982
 30
0.0
 10
11.997573
 20
110.397451
 30
0.0
 10
12.027734
 20
110.611892
 30
0.0
 10
12.065211
 20
110.825227
 30
0.0
  0
LWPOLYLINE
  5
130
100
AcDbEntity
  8
decoupe1
 62
7
100
AcDbPolyline
 90
5
 70
1
 10
177.643326
 20
13.531384
 30
0.0
 10
177.643326
 20
28.277495
 30
0.0
 10
163.884993
 20
28.277495
 30
0.0
 10
163.884993
 20
13.531384
 30
0.0
 10
177.643326
 20
13.531384
 30
0.0
  0
SPLINE
  5
131
100
AcDbEntity
  8
decoupe1
 62
7
100
AcDbSpline
 70
8
 71
3
 72
8
 73
4
 74
0
 40
0
 40
0
 40
0
 40
0
 40
1
 40
1
 40
1
 40
1
 10
9.066599
 20
229.852443
 30
0.0
 10
9.107366
 20
229.407802
 30
0.0
 10
9.270265
 20
228.938015
 30
0.0
 10
9.648158
 20
228.669847
 30
0.0
  0
SPLINE
  5
132
100
AcDbEntity
  8
decoupe1
 62
7
100
AcDbSpline
 70
8
 71
3
 72
8
 73
4
 74
0
 40
0
 40
0
 40
0
 40
0
 40
1
 40
1
 40
1
 40
1
 10
9.648158
 20
228.669847
 30
0.0
 10
10.046605
 20
228.354097
 30
0.0
 10
10.614128
 20
228.249534
 30
0.0
 10
11.087965
 20
228.450109
 30
0.0
  0
SPLINE
  5
133
100
AcDbEntity
  8
decoupe1
 62
7
100
AcDbSpline
 70
8
 71
3
 72
8
 73
4
 74
0
 40
0
 40
0
 40
0
 40
0
 40
1
 40
1
 40
1
 40
1
 10
11.087965
 20
228.450109
 30
0.0
 10
11.521442
 20
228.617354
 30
0.0
 10
11.867460
 20
228.993979
 30
0.0
 10
12.012920
 20
229.433089
 30
0.0
  0
SPLINE
  5
134
100
AcDbEntity
  8
decoupe1
 62
7
100
AcDbSpline
 70
8
 71
3
 72
8
 73
4
 74
0
 40
0
 40
0
 40
0
 40
0
 40
1
 40
1
 40
1
 40
1
 10
12.012920
 20
229.433089
 30
0.0
 10
12.111238
 20
229.791398
 30
0.0
 10
12.085883
 20
230.198335
 30
0.0
 10
11.898925
 20
230.524047
 30
0.0
  0
SPLINE
  5
135
100
AcDbEntity
  8
decoupe1
 62
7
100
AcDbSpline
 70
8
 71
3
 72
8
 73
4
 74
0
 40
0
 40
0
 40
0
 40
0
 40
1
 40
1
 40
1
 40
1
 10
11.898925
 20
230.524047
 30
0.0
 10
11.750665
 20
230.751772
 30
0.0
 10
11.553971
 20
230.948340
 30
0.0
 10
11.337224
 20
231.110928
 30
0.0
  0
SPLINE
  5
136
100
AcDbEntity
  8
decoupe1
 62
7
100
AcDbSpline
 70
8
 71
3
 72
8
 73
4
 74
0
 40
0
 40
0
 40
0
 40
0
 40
1
 40
1
 40
1
 40
1
 10
11.337224
 20
231.110928
 30
0.0
 10
10.997956
 20
231.357224
 30
0.0
 10
10.546827
 20
231.374524
 30
0.0
 10
10.155740
 20
231.259942
 30
0.0
  0
SPLINE
  5
137
100
AcDbEntity
  8
decoupe1
 62
7
100
AcDbSpline
 70
8
 71
3
 72
8
 73
4
 74
0
 40
0
 40
0
 40
0
 40
0
 40
1
 40
1
 40
1
 40
1
 10
10.155740
 20
231.259942
 30
0.0
 10
9.794391
 20
231.148887
 30
0.0
 10
9.431228
 20
230.936628
 30
0.0
 10
9.266032
 20
230.581310
 30
0.0
  0
SPLINE
  5
138
100
AcDbEntity
  8
decoupe1
 62
7
100
AcDbSpline
 70
8
 71
3
 72
8
 73
4
 74
0
 40
0
 40
0
 40
0
 40
0
 40
1
 40
1
 40
1
 40
1
 10
9.266032
 20
230.581310
 30
0.0
 10
9.153806
 20
230.353613
 30
0.0
 10
9.104005
 20
230.101645
 30
0.0
 10
9.066599
 20
229.852443
 30
0.0
  0
LWPOLYLINE
  5
139
100
AcDbEntity
  8
decoupe1
 62
7
100
AcDbPolyline
 90
2
 70
1
 10
12.065211
 20
110.825227
 30
0.0
 10
12.065211
 20
110.825227
 30
0.0
  0
SPLINE
  5
13a
100
AcDbEntity
  8
decoupe1
 62
7
100
AcDbSpline
 70
8
 71
3
 72
8
 73
4
 74
0
 40
0
 40
0
 40
0
 40
0
 40
1
 40
1
 40
1
 40
1
 10
82.056322
 20
229.852443
 30
0.0
 10
82.063942
 20
230.396116
 30
0.0
 10
81.745268
 20
230.943458
 30
0.0
 10
81.237694
 20
231.159217
 30
0.0
  0
SPLINE
  5
13b
100
AcDbEntity
  8
decoupe1
 62
7
100
AcDbSpline
 70
8
 71
3
 72
8
 73
4
 74
0
 40
0
 40
0
 40
0
 40
0
 40
1
 40
1
 40
1
 40
1
 10
81.237694
 20
231.159217
 30
0.0
 10
80.773777
 20
231.384204
 30
0.0
 10
80.178285
 20
231.399275
 30
0.0
 10
79.752178
 20
231.081436
 30
0.0
  0
SPLINE
  5
13c
100
AcDbEntity
  8
decoupe1
 62
7
100
AcDbSpline
 70
8
 71
3
 72
8
 73
4
 74
0
 40
0
 40
0
 40
0
 40
0
 40
1
 40
1
 40
1
 40
1
 10
79.752178
 20
231.081436
 30
0.0
 10
79.354614
 20
230.807878
 30
0.0
 10
79.075931
 20
230.344554
 30
0.0
 10
79.088941
 20
229.854165
 30
0.0
  0
SPLINE
  5
13d
100
AcDbEntity
  8
decoupe1
 62
7
100
AcDbSpline
 70
8
 71
3
 72
8
 73
4
 74
0
 40
0
 40
0
 40
0
 40
0
 40
1
 40
1
 40
1
 40
1
 10
79.088941
 20
229.854165
 30
0.0
 10
79.081829
 20
229.289692
 30
0.0
 10
79.412238
 20
228.715624
 30
0.0
 10
79.944402
 20
228.498284
 30
0.0
  0
SPLINE
  5
13e
100
AcDbEntity
  8
decoupe1
 62
7
100
AcDbSpline
 70
8
 71
3
 72
8
 73
4
 74
0
 40
0
 40
0
 40
0
 40
0
 40
1
 40
1
 40
1
 40
1
 10
79.944402
 20
228.498284
 30
0.0
 10
80.272866
 20
228.340522
 30
0.0
 10
80.660549
 20
228.292770
 30
0.0
 10
81.007446
 20
228.419516
 30
0.0
  0
SPLINE
  5
13f
100
AcDbEntity
  8
decoupe1
 62
7
100
AcDbSpline
 70
8
 71
3
 72
8
 73
4
 74
0
 40
0
 40
0
 40
0
 40
0
 40
1
 40
1
 40
1
 40
1
 10
81.007446
 20
228.419516
 30
0.0
 10
81.502359
 20
228.585265
 30
0.0
 10
81.913009
 20
229.011872
 30
0.0
 10
82.027851
 20
229.524501
 30
0.0
  0
SPLINE
  5
140
100
AcDbEntity
  8
decoupe1
 62
7
100
AcDbSpline
 70
8
 71
3
 72
8
 73
4
 74
0
 40
0
 40
0
 40
0
 40
0
 40
1
 40
1
 40
1
 40
1
 10
82.027851
 20
229.524501
 30
0.0
 10
82.051332
 20
229.632620
 30
0.0
 10
82.039620
 20
229.743618
 30
0.0
 10
82.056322
 20
229.852443
 30
0.0
  0
LWPOLYLINE
  5
141
100
AcDbEntity
  8
decoupe1
 62
7
100
AcDbPolyline
 90
2
 70
1
 10
9.066599
 20
229.852443
 30
0.0
 10
9.066599
 20
229.852443
 30
0.0
  0
SPLINE
  5
142
100
AcDbEntity
  8
decoupe1
 62
7
100
AcDbSpline
 70
8
 71
3
 72
8
 73
4
 74
0
 40
0
 40
0
 40
0
 40
0
 40
1
 40
1
 40
1
 40
1
 10
79.057711
 20
110.825227
 30
0.0
 10
79.113732
 20
110.438252
 30
0.0
 10
79.211076
 20
110.014394
 30
0.0
 10
79.533639
 20
109.759383
 30
0.0
  0
SPLINE
  5
143
100
AcDbEntity
  8
decoupe1
 62
7
100
AcDbSpline
 70
8
 71
3
 72
8
 73
4
 74
0
 40
0
 40
0
 40
0
 40
0
 40
1
 40
1
 40
1
 40
1
 10
79.533639
 20
109.759383
 30
0.0
 10
79.963771
 20
109.376289
 30
0.0
 10
80.625681
 20
109.219377
 30
0.0
 10
81.159115
 20
109.470425
 30
0.0
  0
SPLINE
  5
144
100
AcDbEntity
  8
decoupe1
 62
7
100
AcDbSpline
 70
8
 71
3
 72
8
 73
4
 74
0
 40
0
 40
0
 40
0
 40
0
 40
1
 40
1
 40
1
 40
1
 10
81.159115
 20
109.470425
 30
0.0
 10
81.532974
 20
109.669400
 30
0.0
 10
81.885123
 20
109.981334
 30
0.0
 10
82.000075
 20
110.402952
 30
0.0
  0
SPLINE
  5
145
100
AcDbEntity
  8
decoupe1
 62
7
100
AcDbSpline
 70
8
 71
3
 72
8
 73
4
 74
0
 40
0
 40
0
 40
0
 40
0
 40
1
 40
1
 40
1
 40
1
 10
82.000075
 20
110.402952
 30
0.0
 10
82.177564
 20
110.990942
 30
0.0
 10
81.962037
 20
111.687303
 30
0.0
 10
81.444930
 20
112.033976
 30
0.0
  0
SPLINE
  5
146
100
AcDbEntity
  8
decoupe1
 62
7
100
AcDbSpline
 70
8
 71
3
 72
8
 73
4
 74
0
 40
0
 40
0
 40
0
 40
0
 40
1
 40
1
 40
1
 40
1
 10
81.444930
 20
112.033976
 30
0.0
 10
81.083375
 20
112.278632
 30
0.0
 10
80.616043
 20
112.414126
 30
0.0
 10
80.187198
 20
112.282241
 30
0.0
  0
SPLINE
  5
147
100
AcDbEntity
  8
decoupe1
 62
7
100
AcDbSpline
 70
8
 71
3
 72
8
 73
4
 74
0
 40
0
 40
0
 40
0
 40
0
 40
1
 40
1
 40
1
 40
1
 10
80.187198
 20
112.282241
 30
0.0
 10
79.813053
 20
112.179123
 30
0.0
 10
79.498937
 20
111.916670
 30
0.0
 10
79.282433
 20
111.600646
 30
0.0
  0
SPLINE
  5
148
100
AcDbEntity
  8
decoupe1
 62
7
100
AcDbSpline
 70
8
 71
3
 72
8
 73
4
 74
0
 40
0
 40
0
 40
0
 40
0
 40
1
 40
1
 40
1
 40
1
 10
79.282433
 20
111.600646
 30
0.0
 10
79.136312
 20
111.369566
 30
0.0
 10
79.093807
 20
111.091190
 30
0.0
 10
79.057711
 20
110.825227
 30
0.0
  0
LWPOLYLINE
  5
149
100
AcDbEntity
  8
decoupe1
 62
7
100
AcDbPolyline
 90
2
 70
1
 10
82.056322
 20
229.852443
 30
0.0
 10
82.056322
 20
229.852443
 30
0.0
  0
LWPOLYLINE
  5
14a
100
AcDbEntity
  8
decoupe1
 62
7
100
AcDbPolyline
 90
2
 70
1
 10
79.057711
 20
110.825227
 30
0.0
 10
79.057711
 20
110.825227
 30
0.0
  0
LWPOLYLINE
  5
14b
100
AcDbEntity
  8
decoupe1
 62
7
100
AcDbPolyline
 90
5
 70
1
 10
113.205849
 20
145.079229
 30
0.0
 10
110.207238
 20
145.079229
 30
0.0
 10
110.207238
 20
118.091737
 30
0.0
 10
113.205849
 20
118.091737
 30
0.0
 10
113.205849
 20
145.079229
 30
0.0
  0
LWPOLYLINE
  5
14c
100
AcDbEntity
  8
decoupe1
 62
7
100
AcDbPolyline
 90
5
 70
1
 10
170.708632
 20
137.847284
 30
0.0
 10
170.708632
 20
116.821737
 30
0.0
 10
173.707243
 20
116.821737
 30
0.0
 10
173.707243
 20
137.847284
 30
0.0
 10
170.708632
 20
137.847284
 30
0.0
  0
LWPOLYLINE
  5
14d
100
AcDbEntity
  8
gravure
 62
7
100
AcDbPolyline
 90
8
 70
1
 10
140.146362
 20
145.972039
 30
0.0
 10
140.074683
 20
151.992228
 30
0.0
 10
130.542723
 20
156.579039
 30
0.0
 10
141.866407
 20
161.524185
 30
0.0
 10
153.190091
 20
156.579039
 30
0.0
 10
143.443124
 20
151.992228
 30
0.0
 10
143.443124
 20
145.972039
 30
0.0
 10
140.146362
 20
145.972039
 30
0.0
  0
LWPOLYLINE
  5
14e
100
AcDbEntity
  8
gravure
 62
7
100
AcDbPolyline
 90
4
 70
1
 10
138.431639
 20
162.406539
 30
0.0
 10
128.505491
 20
157.748063
 30
0.0
 10
124.277037
 20
168.570066
 30
0.0
 10
138.431639
 20
162.406539
 30
0.0
  0
LWPOLYLINE
  5
14f
100
AcDbEntity
  8
gravure
 62
7
100
AcDbPolyline
 90
5
 70
1
 10
154.485466
 20
168.691077
 30
0.0
 10
141.871738
 20
162.957561
 30
0.0
 10
129.258022
 20
168.691077
 30
0.0
 10
141.871738
 20
174.639594
 30
0.0
 10
154.485466
 20
168.691077
 30
0.0
  0
LWPOLYLINE
  5
150
100
AcDbEntity
  8
gravure
 62
7
100
AcDbPolyline
 90
4
 70
1
 10
126.391263
 20
180.861273
 30
0.0
 10
139.004990
 20
175.521947
 30
0.0
 10
126.391263
 20
169.716769
 30
0.0
 10
126.391263
 20
180.861273
 30
0.0
  0
LWPOLYLINE
  5
151
100
AcDbEntity
  8
gravure
 62
7
100
AcDbPolyline
 90
5
 70
1
 10
131.121409
 20
181.053963
 30
0.0
 10
141.871738
 20
176.359651
 30
0.0
 10
152.622080
 20
181.053963
 30
0.0
 10
141.871738
 20
185.819937
 30
0.0
 10
131.121409
 20
181.053963
 30
0.0
  0
LWPOLYLINE
  5
152
100
AcDbEntity
  8
gravure
 62
7
100
AcDbPolyline
 90
4
 70
1
 10
138.359968
 20
186.702291
 30
0.0
 10
131.264746
 20
183.190521
 30
0.0
 10
133.199803
 20
189.569048
 30
0.0
 10
138.359968
 20
186.702291
 30
0.0
  0
LWPOLYLINE
  5
153
100
AcDbEntity
  8
gravure
 62
7
100
AcDbPolyline
 90
5
 70
1
 10
141.871750
 20
194.850216
 30
0.0
 10
137.141604
 20
190.084230
 30
0.0
 10
141.871750
 20
188.113345
 30
0.0
 10
146.601893
 20
190.084230
 30
0.0
 10
141.871750
 20
194.850216
 30
0.0
  0
LWPOLYLINE
  5
154
100
AcDbEntity
  8
gravure
 62
7
100
AcDbPolyline
 90
4
 70
1
 10
145.269547
 20
162.406539
 30
0.0
 10
155.195695
 20
157.748063
 30
0.0
 10
159.424149
 20
168.570066
 30
0.0
 10
145.269547
 20
162.406539
 30
0.0
  0
LWPOLYLINE
  5
155
100
AcDbEntity
  8
gravure
 62
7
100
AcDbPolyline
 90
4
 70
1
 10
157.309923
 20
180.861273
 30
0.0
 10
144.696196
 20
175.521947
 30
0.0
 10
157.309923
 20
169.716769
 30
0.0
 10
157.309923
 20
180.861273
 30
0.0
  0
LWPOLYLINE
  5
156
100
AcDbEntity
  8
gravure
 62
7
100
AcDbPolyline
 90
4
 70
1
 10
145.341218
 20
186.702291
 30
0.0
 10
152.436437
 20
183.190521
 30
0.0
 10
150.501383
 20
189.569048
 30
0.0
 10
145.341218
 20
186.702291
 30
0.0
  0
ENDSEC
  0
SECTION
  2
OBJECTS
  0
DICTIONARY
  5
C
330
0
100
AcDbDictionary
  3
ACAD_GROUP
350
D
  3
ACAD_MLINESTYLE
350
17
  0
DICTIONARY
  5
D
330
C
100
AcDbDictionary
  0
DICTIONARY
  5
1A
330
C
100
AcDbDictionary
  0
DICTIONARY
  5
17
330
C
100
AcDbDictionary
  3
STANDARD
350
18
  0
DICTIONARY
  5
19
330
C
100
AcDbDictionary
  0
ENDSEC
  0
EOF
